<svg width="46" height="34" viewBox="0 0 46 34" fill="none" xmlns="http://www.w3.org/2000/svg">
<path d="M41.7507 32.1877C41.7507 32.6021 41.586 32.9995 41.293 33.2926C41 33.5856 40.6026 33.7502 40.1882 33.7502H12.0632C11.6488 33.7502 11.2513 33.5856 10.9583 33.2926C10.6653 32.9995 10.5007 32.6021 10.5007 32.1877C10.5007 31.7733 10.6653 31.3759 10.9583 31.0829C11.2513 30.7898 11.6488 30.6252 12.0632 30.6252H40.1882C40.6026 30.6252 41 30.7898 41.293 31.0829C41.586 31.3759 41.7507 31.7733 41.7507 32.1877ZM38.6257 9.53147H28.0397L19.6608 0.410371C19.5895 0.330659 19.5022 0.266854 19.4046 0.223108C19.3071 0.179361 19.2013 0.156654 19.0944 0.156465H15.7936C15.422 0.151343 15.0547 0.237743 14.7243 0.408048C14.394 0.578353 14.1105 0.82733 13.8991 1.13303C13.6792 1.43249 13.5343 1.78031 13.4765 2.14733C13.4187 2.51434 13.4498 2.88986 13.5671 3.2424L15.6764 9.53147H10.8717L7.19987 5.1174C7.1244 5.03115 7.03128 4.96211 6.92683 4.91493C6.82238 4.86776 6.70901 4.84356 6.5944 4.84397H3.23503C2.86814 4.84245 2.50594 4.92637 2.1771 5.08909C1.84827 5.25182 1.56184 5.48886 1.3405 5.78147C1.12353 6.07475 0.978644 6.41499 0.917569 6.77465C0.856493 7.13432 0.880941 7.50331 0.988934 7.85178L3.72331 17.0119C4.15083 18.4658 5.03911 19.7414 6.25439 20.6467C7.46968 21.552 8.94619 22.038 10.4616 22.0315H44.8757C45.0829 22.0315 45.2816 21.9492 45.4281 21.8026C45.5746 21.6561 45.6569 21.4574 45.6569 21.2502V16.5627C45.6569 14.6979 44.9161 12.9095 43.5975 11.5909C42.2789 10.2723 40.4905 9.53147 38.6257 9.53147Z" fill="white"/>
</svg>
