<svg width="48" height="48" viewBox="0 0 48 48" fill="none" xmlns="http://www.w3.org/2000/svg">
<path d="M45.3477 41.3211C47.3797 38.3805 47.4375 35.9219 47.4375 35.9219C47.4375 35.9219 46.282 35.1797 45.2648 34.5227V26.3234L37.6234 18.8758V13.7289C37.7219 13.6953 37.8211 13.6641 37.9164 13.6187C38.3741 13.8362 38.8745 13.9491 39.3812 13.9492C41.3195 13.9492 42.8969 12.3742 42.8969 10.4398C42.8969 8.50547 41.3195 6.93047 39.3812 6.93047C38.8758 6.93047 38.3844 7.04219 37.9164 7.26094C37.4585 7.04403 36.9582 6.93117 36.4516 6.93047C34.3617 6.93047 33.393 8.13047 33.0625 9.03906C32.4137 9.14762 31.8244 9.48242 31.3989 9.98409C30.9735 10.4858 30.7394 11.1219 30.7383 11.7797C30.7383 11.8234 30.7469 11.8641 30.75 11.907C30.6953 11.9383 30.6438 11.9805 30.5906 12.0172L28.8344 10.3039V7.53672C29.1894 7.49786 29.5358 7.40183 29.8602 7.25234C30.3281 7.47109 30.8195 7.58281 31.325 7.58281C33.2633 7.58281 34.8406 6.00781 34.8406 4.07344C34.8406 2.13906 33.2625 0.5625 31.3242 0.5625C30.825 0.5625 30.325 0.676563 29.8594 0.89375C29.4011 0.677735 28.9011 0.564671 28.3945 0.5625C26.3055 0.5625 25.3359 1.76172 25.0055 2.66953C24.5727 2.74271 24.1635 2.91726 23.8111 3.17892C23.4587 3.44057 23.1733 3.7819 22.9781 4.175C22.2846 4.43009 21.6383 4.79865 21.0656 5.26563L20.6305 5.61719V8.74766L16.2852 8.20625L10.0586 9.75859V12.3164L8.59375 12.682V15.2391L7.12891 15.6047V17.1781C6.78283 17.2079 6.43944 17.2632 6.10156 17.3438C6.08828 17.3469 6.07812 17.3555 6.06562 17.3594C6.05156 17.3633 6.0375 17.3633 6.02422 17.368C5.85078 17.432 1.77344 18.9836 0.594531 22.9922C0.594531 22.9922 1.83203 28.0461 5.28516 33.5102C7.18359 36.5141 8.60938 40.1602 9.48906 42.7508H0.5625V47.4383H47.4375V42.7508H44.4789C44.7164 42.3016 45.0016 41.8227 45.3477 41.3211ZM44.4836 27.0453V27.8367L44.1414 27.5437V27.0977L27.2961 12.2188V13.1008L26.7289 12.6141L25.4648 12.4563V11.5992L27.857 11.8977L44.4836 27.0453ZM22.9016 21.1086V21.8211C22.2875 21.5312 21.6773 21.2516 21.0703 20.9789V20.3695L23.5 20.6727L44.4828 33.6688V34.0211L44.1469 33.8062V33.6188L22.9016 21.1086ZM42.825 34.8086V35.2859L39.7742 33.7977V32.9109C40.9117 33.6086 41.9414 34.2508 42.825 34.8086ZM39.4078 32.6867V33.6188L38.0641 32.9625V31.8719C38.5258 32.1508 38.9742 32.4227 39.4078 32.6867ZM37.6977 31.6516V32.7844L34.3516 31.1516V29.6773C35.5195 30.3547 36.643 31.0172 37.6977 31.6516ZM33.9852 29.4656V30.9734L32.5703 30.2828V28.657C33.0492 28.9281 33.5211 29.1969 33.9852 29.4656ZM32.2047 28.4477V30.1039L28.2258 28.1625V26.2609C29.5773 26.9828 30.9117 27.718 32.2047 28.4477ZM27.8594 26.0656V27.9844L26.2727 27.2102V25.2344C26.8031 25.5094 27.3328 25.7852 27.8594 26.0656ZM21.5844 24.9227V22.9273C23.0133 23.593 24.4617 24.3062 25.9062 25.0477V27.0312L21.5844 24.9227ZM21.7367 27.0992C21.6867 27.1023 21.6313 27.1023 21.5852 27.1078V27.0305L21.7367 27.0992ZM16.2 18.9875C15.0384 18.5598 13.8586 18.1831 12.6641 17.8586L23.4937 19.2094L34.0727 26.3008L23.8391 19.9633L16.2 18.9875ZM20.4695 20.2945L19.4984 20.293C19.3648 20.2359 19.232 20.1789 19.0992 20.1234L20.4695 20.2945ZM11.8906 16.975L10.3727 17.3539C10.1133 17.3102 9.86719 17.2812 9.61953 17.25L13.4039 16.3063L21.9438 17.3711H15.0711L11.8906 16.975ZM44.1336 32.1047V31.6195L24.3664 17.8531V18.8547L23.8516 18.5094L23.7742 18.4578L22.5352 18.3031V17.4453L24.9539 17.7469L44.4836 31.4617V32.3391L44.1336 32.1047ZM44.1023 29.8047V29.2648L25.8313 15.0437V15.9742L25.2508 15.5344L24 15.3789V14.5227L26.4055 14.8227L44.4836 29.2539V30.093L44.1023 29.8047ZM36.4516 17.7328L33.8461 15.1914C34.7617 15.2328 35.6648 15.5914 36.4516 16.357V17.7328ZM33.5219 10.1727H34.0266L34.1008 9.67266C34.1109 9.60859 34.3586 8.10156 36.4516 8.10156C36.8555 8.10156 37.2492 8.21172 37.6219 8.42812L37.9164 8.59922L38.2109 8.42812C38.5649 8.21687 38.969 8.10412 39.3812 8.10156C40.0018 8.10156 40.597 8.34763 41.0363 8.78582C41.4757 9.22401 41.7233 9.81855 41.725 10.4391C41.7233 11.0596 41.4757 11.6541 41.0363 12.0923C40.597 12.5305 40.0018 12.7766 39.3812 12.7766C38.9691 12.7743 38.565 12.6618 38.2109 12.4508L37.9164 12.2797L37.6219 12.4508C37.5094 12.5156 37.393 12.5555 37.2773 12.6L37.2687 12.5922C36.2547 11.6047 35.007 11.0828 33.6633 11.0828C33.1008 11.0828 32.5312 11.1828 31.9719 11.3633C32.0634 11.022 32.2649 10.7205 32.5451 10.5052C32.8253 10.29 33.1686 10.1731 33.5219 10.1727ZM33.6625 12.2563C34.6406 12.2563 35.6125 12.6172 36.4508 13.4336V14.8953C35.2828 13.7586 33.8594 13.5188 32.518 13.8969L31.475 12.8797C32.1719 12.493 32.9148 12.2563 33.6625 12.2563ZM25.4648 3.80312L25.9609 3.79688L26.0438 3.30859C26.0711 3.14844 26.3687 1.73438 28.3945 1.73438C28.8065 1.73649 29.2103 1.84899 29.5641 2.06016L29.8594 2.23281L30.1547 2.06016C30.5084 1.84899 30.9123 1.73649 31.3242 1.73438C31.9447 1.73437 32.5399 1.98044 32.9793 2.41863C33.4187 2.85682 33.6663 3.45136 33.668 4.07188C33.6663 4.69239 33.4187 5.28693 32.9793 5.72512C32.5399 6.16331 31.9447 6.40938 31.3242 6.40938C30.912 6.40693 30.5079 6.29418 30.1539 6.08281L29.8594 5.9125L29.5648 6.08359C29.3385 6.21446 29.091 6.30463 28.8336 6.35V5.68203L28.4789 5.3375C27.5391 4.42109 26.3977 3.91172 25.1648 3.84141C25.2633 3.81873 25.3638 3.8059 25.4648 3.80312ZM21.8031 6.17656C22.7227 5.43281 23.8023 4.99844 24.8742 4.99844C25.8523 4.99844 26.8242 5.36016 27.6625 6.17656V7.63828C25.9047 5.92656 23.5609 6.21641 21.8031 7.63828V6.17656ZM27.6625 9.09922V9.62422L22.0375 8.92344C23.7648 7.65937 25.9813 7.4625 27.6625 9.09922ZM10.8406 10.3687L16.3328 8.99922L27.8492 10.4352L34.0648 16.4977L28.1992 11.1531L16.2852 9.66719L10.8398 11.0258V10.3687H10.8406ZM10.8406 11.8305L16.3328 10.4602L24.8719 11.525H18.0008L14.8211 11.1281L10.8406 12.1211V11.8305ZM9.37578 13.2922L14.868 11.9219L26.3977 13.3602L34.1352 19.9937L26.7211 14.075L14.8211 12.5906L9.37578 13.9492V13.2922ZM9.37578 14.7539L14.868 13.3836L23.4086 14.4484H16.5375L13.3555 14.0516L9.37578 15.0445V14.7539ZM7.91094 16.2148L13.4039 14.8453L24.9469 16.2844L34.1391 23.2422L25.2437 16.9961L13.3562 15.5133L7.91172 16.8719V16.2148H7.91094ZM6.55234 32.6547C3.65781 28.075 2.39219 24.1734 2.11016 23.2297C2.76719 21.2812 4.33359 20.0586 5.41484 19.4109C5.30078 21.6758 5.35781 26.3922 7.16094 31.6641C7.79219 33.5086 8.29375 35.1633 8.69766 36.6422C8.06875 35.2891 7.35391 33.9242 6.55234 32.6547ZM8.5875 31.1438C6.65703 25.5 6.84531 20.4055 6.975 18.7617C7.31599 18.7154 7.65979 18.693 8.00391 18.6945C11.268 18.6945 16.0906 20.3969 21.218 22.7586V24.7437L19.9703 24.1352L19.9789 26.3047L21.218 26.8648V27.1898C20.8891 27.3102 20.7898 27.532 21.0062 27.832C21.4562 28.45 23.0555 29.1625 24.5844 29.4203C25.593 29.5922 26.3063 29.5203 26.5531 29.275L27.8594 29.8648V29.9047C27.7172 30.0055 27.6977 30.1563 27.8359 30.3508C28.2117 30.8805 29.5914 31.5273 30.9211 31.7945C31.5141 31.9141 31.9875 31.9328 32.3055 31.875L33.7008 32.5055C33.6839 32.6043 33.7063 32.7058 33.7633 32.7883C34.0906 33.3258 35.343 34.0063 36.5688 34.3055C37.1539 34.4492 37.6203 34.4766 37.9172 34.4109L39.1492 34.968C39.1419 35.0432 39.1637 35.1185 39.2102 35.1781C39.5125 35.6203 40.6672 36.2086 41.7969 36.4883C42.218 36.5938 42.575 36.6406 42.8414 36.6359L44.1469 37.2258L44.1477 35.932L43.1906 35.4648V35.0414C44.0864 35.6082 44.9779 36.182 45.8648 36.7625C45.7375 37.3687 45.3414 38.6398 44.1164 40.4133C43.6044 41.1514 43.1586 41.9333 42.7844 42.75H11.5625C11.218 40.3328 10.4219 36.5039 8.5875 31.1438ZM5.11016 10.6195C4.97734 9.50078 6.77266 8.82812 6.77266 8.82812C5.03516 8.73906 4.58047 10.0266 4.58047 10.0266C3.12656 10.3797 3.20781 11.3977 3.20781 11.3977C3.83047 10.3203 5.11016 10.6195 5.11016 10.6195ZM5.50937 4.76484C6.01719 3.76016 7.88672 4.18828 7.88672 4.18828C6.4875 3.15625 5.39687 3.97891 5.39687 3.97891C3.98906 3.47266 3.49219 4.36484 3.49219 4.36484C4.60781 3.80938 5.50937 4.76484 5.50937 4.76484Z" fill="white"/>
</svg>
