<svg width="26" height="24" viewBox="0 0 26 24" fill="none" xmlns="http://www.w3.org/2000/svg">
<path d="M25.3134 5.95192L13.8287 0.812858C13.2715 0.56352 12.6623 0.56352 12.105 0.812858L0.652031 5.95192C0.261544 6.12965 0 6.59684 0 7.12496C0 7.65309 0.261544 8.12282 0.652031 8.2975L3.09034 9.38981C2.60731 10.1922 2.26728 11.1245 2.093 12.1295C1.62703 12.3757 1.3 12.9547 1.3 13.625C1.3 14.1304 1.49557 14.5639 1.78506 14.862L0.776344 22.4284C0.710125 22.923 1.01562 23.375 1.41741 23.375H3.78259C4.18425 23.375 4.48987 22.9241 4.42366 22.4289L3.41494 14.8625C3.70459 14.5644 3.9 14.0871 3.9 13.625C3.9 13.1024 3.68981 12.6586 3.38325 12.361C3.55347 11.4704 3.90213 10.6486 4.39644 9.97278L12.1396 13.4376C12.6968 13.6869 13.306 13.6869 13.8633 13.4376L25.348 8.29852C25.74 8.12028 26 7.65309 26 7.12496C26 6.59684 25.74 6.12965 25.3134 5.95192ZM14.2634 14.9656C13.8816 15.1535 13.4428 15.25 13 15.25C12.5569 15.2501 12.1171 15.1547 11.7 14.9679L5.80125 12.33L5.2 19.5816C5.2 21.6789 8.65719 23.375 13 23.375C17.2697 23.375 20.8 21.6789 20.8 19.5831L20.1996 12.3265L14.2634 14.9656Z" fill="black"/>
</svg>
